<mxfile host="65bd71144e">
    <diagram id="QP1Ndk84_r0Yb-T0uzmw" name="Page-1">
        <mxGraphModel dx="1481" dy="737" grid="0" gridSize="10" guides="1" tooltips="1" connect="1" arrows="1" fold="1" page="1" pageScale="1" pageWidth="827" pageHeight="1169" background="#ffffff" math="0" shadow="0">
            <root>
                <mxCell id="0"/>
                <mxCell id="1" parent="0"/>
                <mxCell id="2" value="" style="whiteSpace=wrap;html=1;fillColor=none;fontColor=#ffffff;strokeColor=#2D7600;dashed=1;strokeWidth=3;" vertex="1" parent="1">
                    <mxGeometry x="-61" y="402" width="546" height="186" as="geometry"/>
                </mxCell>
                <mxCell id="3" value="&lt;font style=&quot;font-size: 17px&quot;&gt;picture&lt;/font&gt;" style="whiteSpace=wrap;html=1;strokeWidth=0;fillColor=#0050ef;fontColor=#ffffff;strokeColor=#001DBC;rounded=1;" vertex="1" parent="1">
                    <mxGeometry x="-36" y="426" width="150" height="100" as="geometry"/>
                </mxCell>
                <mxCell id="4" value="" style="whiteSpace=wrap;html=1;rounded=1;fontSize=17;strokeWidth=2;fillColor=#B1A7B5;fontColor=#ffffff;strokeColor=#314354;" vertex="1" parent="1">
                    <mxGeometry x="-36" y="568" width="484" height="2" as="geometry"/>
                </mxCell>
                <mxCell id="5" value="title" style="whiteSpace=wrap;html=1;rounded=1;fontSize=17;strokeWidth=2;fillColor=#B1A7B5;" vertex="1" parent="1">
                    <mxGeometry x="137" y="426" width="151" height="36" as="geometry"/>
                </mxCell>
                <mxCell id="6" value="description" style="whiteSpace=wrap;html=1;rounded=1;fontSize=17;strokeWidth=2;fillColor=#B1A7B5;" vertex="1" parent="1">
                    <mxGeometry x="135" y="476" width="311.5" height="52" as="geometry"/>
                </mxCell>
                <mxCell id="7" value="&lt;div style=&quot;font-size: 7px&quot;&gt;&lt;font style=&quot;font-size: 7px&quot;&gt;&amp;nbsp; &amp;nbsp; 阅读量:123&amp;nbsp; &amp;nbsp; &amp;nbsp; &amp;nbsp;评论数：123&lt;/font&gt;&lt;span&gt;&amp;nbsp;&lt;/span&gt;&lt;/div&gt;" style="whiteSpace=wrap;html=1;rounded=1;fontSize=17;strokeWidth=2;fillColor=#B1A7B5;align=left;" vertex="1" parent="1">
                    <mxGeometry x="342" y="426" width="104.5" height="20" as="geometry"/>
                </mxCell>
            </root>
        </mxGraphModel>
    </diagram>
</mxfile>